<svg id="Layer_1" data-name="Layer 1" xmlns="http://www.w3.org/2000/svg" xmlns:xlink="http://www.w3.org/1999/xlink" viewBox="0 0 73 49"><defs><style>.cls-1{fill:#008cad;}.cls-2{fill:url(#linear-gradient);}.cls-3{fill:url(#linear-gradient-2);}.cls-4{fill:url(#linear-gradient-3);}.cls-5{fill:url(#linear-gradient-4);}.cls-6{fill:url(#linear-gradient-5);}.cls-7{fill:url(#linear-gradient-6);}.cls-8{fill:url(#linear-gradient-7);}.cls-9{fill:url(#linear-gradient-8);}.cls-10{fill:url(#linear-gradient-9);}.cls-11{fill:url(#linear-gradient-10);}.cls-12{fill:url(#linear-gradient-11);}.cls-13{fill:url(#linear-gradient-12);}.cls-14{fill:url(#linear-gradient-13);}.cls-15{fill:url(#linear-gradient-14);}.cls-16{fill:url(#linear-gradient-15);}.cls-17{fill:url(#linear-gradient-16);}.cls-18{fill:url(#linear-gradient-17);}.cls-19{fill:url(#linear-gradient-18);}.cls-20{fill:url(#linear-gradient-19);}.cls-21{fill:url(#linear-gradient-20);}.cls-22{fill:url(#linear-gradient-21);}.cls-23{fill:url(#linear-gradient-22);}.cls-24{fill:url(#linear-gradient-23);}.cls-25{fill:url(#linear-gradient-24);}.cls-26{fill:url(#linear-gradient-25);}.cls-27{fill:url(#linear-gradient-26);}.cls-28{fill:url(#linear-gradient-27);}.cls-29{fill:url(#linear-gradient-28);}.cls-30{fill:url(#linear-gradient-29);}.cls-31{fill:url(#linear-gradient-30);}.cls-32{fill:url(#linear-gradient-31);}.cls-33{fill:url(#linear-gradient-32);}.cls-34{fill:url(#linear-gradient-33);}.cls-35{fill:url(#linear-gradient-34);}.cls-36{fill:url(#linear-gradient-35);}.cls-37{fill:url(#linear-gradient-36);}.cls-38{fill:url(#linear-gradient-37);}.cls-39{fill:url(#linear-gradient-38);}.cls-40{fill:url(#linear-gradient-39);}.cls-41{fill:url(#linear-gradient-40);}.cls-42{fill:url(#linear-gradient-41);}.cls-43{fill:url(#linear-gradient-42);}.cls-44{fill:url(#linear-gradient-43);}.cls-45{fill:url(#linear-gradient-44);}.cls-46{fill:url(#linear-gradient-45);}.cls-47{fill:url(#linear-gradient-46);}.cls-48{fill:url(#linear-gradient-47);}.cls-49{fill:url(#linear-gradient-48);}.cls-50{fill:url(#linear-gradient-49);}.cls-51{fill:url(#linear-gradient-50);}.cls-52{fill:url(#linear-gradient-51);}.cls-53{fill:url(#linear-gradient-52);}.cls-54{fill:url(#linear-gradient-53);}.cls-55{fill:url(#linear-gradient-54);}.cls-56{fill:url(#linear-gradient-55);}.cls-57{fill:url(#linear-gradient-56);}.cls-58{fill:url(#linear-gradient-57);}.cls-59{fill:url(#linear-gradient-58);}.cls-60{fill:url(#linear-gradient-59);}.cls-61{fill:url(#linear-gradient-60);}.cls-62{fill:url(#linear-gradient-61);}.cls-63{fill:url(#linear-gradient-62);}.cls-64{fill:url(#linear-gradient-63);}.cls-65{fill:url(#linear-gradient-64);}.cls-66{fill:url(#linear-gradient-65);}.cls-67{fill:url(#linear-gradient-66);}.cls-68{fill:url(#linear-gradient-67);}.cls-69{fill:url(#linear-gradient-68);}.cls-70{fill:url(#linear-gradient-69);}.cls-71{fill:url(#linear-gradient-70);}.cls-72{fill:url(#linear-gradient-71);}.cls-73{fill:url(#linear-gradient-72);}.cls-74{fill:url(#linear-gradient-73);}.cls-75{fill:url(#linear-gradient-74);}.cls-76{fill:url(#linear-gradient-75);}</style><linearGradient id="linear-gradient" x1="12.64" y1="17.12" x2="13.12" y2="17.12" gradientUnits="userSpaceOnUse"><stop offset="0" stop-color="#008cad"/><stop offset="1" stop-color="#4c2978"/></linearGradient><linearGradient id="linear-gradient-2" x1="14.01" y1="17.8" x2="14.34" y2="17.8" xlink:href="#linear-gradient"/><linearGradient id="linear-gradient-3" x1="11.27" y1="16.69" x2="11.72" y2="16.69" xlink:href="#linear-gradient"/><linearGradient id="linear-gradient-4" x1="11.27" y1="32.31" x2="11.72" y2="32.31" xlink:href="#linear-gradient"/><linearGradient id="linear-gradient-5" x1="14.01" y1="31.19" x2="14.34" y2="31.19" xlink:href="#linear-gradient"/><linearGradient id="linear-gradient-6" x1="14.35" y1="30.55" x2="15.61" y2="30.55" xlink:href="#linear-gradient"/><linearGradient id="linear-gradient-7" x1="12.64" y1="31.87" x2="13.12" y2="31.87" xlink:href="#linear-gradient"/><linearGradient id="linear-gradient-8" x1="14.35" y1="18.79" x2="16.17" y2="18.79" xlink:href="#linear-gradient"/><linearGradient id="linear-gradient-9" x1="16.05" y1="29.25" x2="16.41" y2="29.25" xlink:href="#linear-gradient"/><linearGradient id="linear-gradient-10" x1="34.57" y1="32.31" x2="35.03" y2="32.31" xlink:href="#linear-gradient"/><linearGradient id="linear-gradient-11" x1="30.69" y1="18.45" x2="31.94" y2="18.45" xlink:href="#linear-gradient"/><linearGradient id="linear-gradient-12" x1="29.88" y1="19.75" x2="30.24" y2="19.75" xlink:href="#linear-gradient"/><linearGradient id="linear-gradient-13" x1="33.17" y1="31.87" x2="33.65" y2="31.87" xlink:href="#linear-gradient"/><linearGradient id="linear-gradient-14" x1="33.17" y1="17.12" x2="33.65" y2="17.12" xlink:href="#linear-gradient"/><linearGradient id="linear-gradient-15" x1="34.57" y1="16.69" x2="35.03" y2="16.69" xlink:href="#linear-gradient"/><linearGradient id="linear-gradient-16" x1="30.12" y1="30.2" x2="31.94" y2="30.2" xlink:href="#linear-gradient"/><linearGradient id="linear-gradient-17" x1="31.95" y1="17.8" x2="32.28" y2="17.8" xlink:href="#linear-gradient"/><linearGradient id="linear-gradient-18" x1="31.95" y1="31.19" x2="32.28" y2="31.19" xlink:href="#linear-gradient"/><linearGradient id="linear-gradient-19" x1="1.8" y1="24.5" x2="44.49" y2="24.5" xlink:href="#linear-gradient"/><linearGradient id="linear-gradient-20" x1="39.35" y1="17.12" x2="39.83" y2="17.12" xlink:href="#linear-gradient"/><linearGradient id="linear-gradient-21" x1="40.72" y1="17.8" x2="41.05" y2="17.8" xlink:href="#linear-gradient"/><linearGradient id="linear-gradient-22" x1="37.98" y1="16.69" x2="38.43" y2="16.69" xlink:href="#linear-gradient"/><linearGradient id="linear-gradient-23" x1="37.98" y1="32.31" x2="38.43" y2="32.31" xlink:href="#linear-gradient"/><linearGradient id="linear-gradient-24" x1="40.72" y1="31.19" x2="41.05" y2="31.19" xlink:href="#linear-gradient"/><linearGradient id="linear-gradient-25" x1="41.06" y1="30.55" x2="42.32" y2="30.55" xlink:href="#linear-gradient"/><linearGradient id="linear-gradient-26" x1="39.35" y1="31.87" x2="39.83" y2="31.87" xlink:href="#linear-gradient"/><linearGradient id="linear-gradient-27" x1="41.06" y1="18.79" x2="42.88" y2="18.79" xlink:href="#linear-gradient"/><linearGradient id="linear-gradient-28" x1="42.76" y1="29.25" x2="43.12" y2="29.25" xlink:href="#linear-gradient"/><linearGradient id="linear-gradient-29" x1="61.28" y1="32.31" x2="61.74" y2="32.31" xlink:href="#linear-gradient"/><linearGradient id="linear-gradient-30" x1="57.39" y1="18.45" x2="58.65" y2="18.45" xlink:href="#linear-gradient"/><linearGradient id="linear-gradient-31" x1="56.59" y1="19.75" x2="56.95" y2="19.75" xlink:href="#linear-gradient"/><linearGradient id="linear-gradient-32" x1="59.88" y1="31.87" x2="60.36" y2="31.87" xlink:href="#linear-gradient"/><linearGradient id="linear-gradient-33" x1="59.88" y1="17.12" x2="60.36" y2="17.12" xlink:href="#linear-gradient"/><linearGradient id="linear-gradient-34" x1="61.28" y1="16.69" x2="61.74" y2="16.69" xlink:href="#linear-gradient"/><linearGradient id="linear-gradient-35" x1="56.83" y1="30.2" x2="58.65" y2="30.2" xlink:href="#linear-gradient"/><linearGradient id="linear-gradient-36" x1="58.66" y1="17.8" x2="58.99" y2="17.8" xlink:href="#linear-gradient"/><linearGradient id="linear-gradient-37" x1="58.66" y1="31.19" x2="58.99" y2="31.19" xlink:href="#linear-gradient"/><linearGradient id="linear-gradient-38" x1="267.48" y1="-203.5" x2="267.48" y2="-203.98" gradientTransform="translate(230.33 298.04) rotate(-90)" xlink:href="#linear-gradient"/><linearGradient id="linear-gradient-39" x1="266.8" y1="-202.28" x2="266.8" y2="-202.61" gradientTransform="translate(230.33 298.04) rotate(-90)" xlink:href="#linear-gradient"/><linearGradient id="linear-gradient-40" x1="267.91" y1="-204.9" x2="267.91" y2="-205.36" gradientTransform="translate(230.33 298.04) rotate(-90)" xlink:href="#linear-gradient"/><linearGradient id="linear-gradient-41" x1="252.29" y1="-204.9" x2="252.29" y2="-205.36" gradientTransform="translate(230.33 298.04) rotate(-90)" xlink:href="#linear-gradient"/><linearGradient id="linear-gradient-42" x1="253.41" y1="-202.28" x2="253.41" y2="-202.61" gradientTransform="translate(230.33 298.04) rotate(-90)" xlink:href="#linear-gradient"/><linearGradient id="linear-gradient-43" x1="254.05" y1="-201.01" x2="254.05" y2="-202.27" gradientTransform="translate(230.33 298.04) rotate(-90)" xlink:href="#linear-gradient"/><linearGradient id="linear-gradient-44" x1="252.73" y1="-203.5" x2="252.73" y2="-203.98" gradientTransform="translate(230.33 298.04) rotate(-90)" xlink:href="#linear-gradient"/><linearGradient id="linear-gradient-45" x1="265.81" y1="-200.45" x2="265.81" y2="-202.27" gradientTransform="translate(230.33 298.04) rotate(-90)" xlink:href="#linear-gradient"/><linearGradient id="linear-gradient-46" x1="255.35" y1="-200.21" x2="255.35" y2="-200.57" gradientTransform="translate(230.33 298.04) rotate(-90)" xlink:href="#linear-gradient"/><linearGradient id="linear-gradient-47" x1="252.29" y1="-181.59" x2="252.29" y2="-182.05" gradientTransform="translate(230.33 298.04) rotate(-90)" xlink:href="#linear-gradient"/><linearGradient id="linear-gradient-48" x1="266.15" y1="-184.68" x2="266.15" y2="-185.94" gradientTransform="translate(230.33 298.04) rotate(-90)" xlink:href="#linear-gradient"/><linearGradient id="linear-gradient-49" x1="264.85" y1="-186.37" x2="264.85" y2="-186.74" gradientTransform="translate(230.33 298.04) rotate(-90)" xlink:href="#linear-gradient"/><linearGradient id="linear-gradient-50" x1="252.73" y1="-182.96" x2="252.73" y2="-183.45" gradientTransform="translate(230.33 298.04) rotate(-90)" xlink:href="#linear-gradient"/><linearGradient id="linear-gradient-51" x1="267.48" y1="-182.96" x2="267.48" y2="-183.45" gradientTransform="translate(230.33 298.04) rotate(-90)" xlink:href="#linear-gradient"/><linearGradient id="linear-gradient-52" x1="267.91" y1="-181.59" x2="267.91" y2="-182.05" gradientTransform="translate(230.33 298.04) rotate(-90)" xlink:href="#linear-gradient"/><linearGradient id="linear-gradient-53" x1="254.4" y1="-184.68" x2="254.4" y2="-186.5" gradientTransform="translate(230.33 298.04) rotate(-90)" xlink:href="#linear-gradient"/><linearGradient id="linear-gradient-54" x1="266.8" y1="-184.34" x2="266.8" y2="-184.67" gradientTransform="translate(230.33 298.04) rotate(-90)" xlink:href="#linear-gradient"/><linearGradient id="linear-gradient-55" x1="253.41" y1="-184.34" x2="253.41" y2="-184.67" gradientTransform="translate(230.33 298.04) rotate(-90)" xlink:href="#linear-gradient"/><linearGradient id="linear-gradient-56" x1="260.1" y1="-172.13" x2="260.1" y2="-214.81" gradientTransform="translate(230.33 298.04) rotate(-90)" xlink:href="#linear-gradient"/><linearGradient id="linear-gradient-57" x1="294.36" y1="-203.5" x2="294.36" y2="-203.98" gradientTransform="translate(230.33 298.04) rotate(-90)" xlink:href="#linear-gradient"/><linearGradient id="linear-gradient-58" x1="293.68" y1="-202.28" x2="293.68" y2="-202.61" gradientTransform="translate(230.33 298.04) rotate(-90)" xlink:href="#linear-gradient"/><linearGradient id="linear-gradient-59" x1="294.79" y1="-204.9" x2="294.79" y2="-205.36" gradientTransform="translate(230.33 298.04) rotate(-90)" xlink:href="#linear-gradient"/><linearGradient id="linear-gradient-60" x1="279.17" y1="-204.9" x2="279.17" y2="-205.36" gradientTransform="translate(230.33 298.04) rotate(-90)" xlink:href="#linear-gradient"/><linearGradient id="linear-gradient-61" x1="280.29" y1="-202.28" x2="280.29" y2="-202.61" gradientTransform="translate(230.33 298.04) rotate(-90)" xlink:href="#linear-gradient"/><linearGradient id="linear-gradient-62" x1="280.93" y1="-201.01" x2="280.93" y2="-202.27" gradientTransform="translate(230.33 298.04) rotate(-90)" xlink:href="#linear-gradient"/><linearGradient id="linear-gradient-63" x1="279.61" y1="-203.5" x2="279.61" y2="-203.98" gradientTransform="translate(230.33 298.04) rotate(-90)" xlink:href="#linear-gradient"/><linearGradient id="linear-gradient-64" x1="292.69" y1="-200.45" x2="292.69" y2="-202.27" gradientTransform="translate(230.33 298.04) rotate(-90)" xlink:href="#linear-gradient"/><linearGradient id="linear-gradient-65" x1="282.23" y1="-200.21" x2="282.23" y2="-200.57" gradientTransform="translate(230.33 298.04) rotate(-90)" xlink:href="#linear-gradient"/><linearGradient id="linear-gradient-66" x1="279.17" y1="-181.59" x2="279.17" y2="-182.05" gradientTransform="translate(230.33 298.04) rotate(-90)" xlink:href="#linear-gradient"/><linearGradient id="linear-gradient-67" x1="293.03" y1="-184.68" x2="293.03" y2="-185.94" gradientTransform="translate(230.33 298.04) rotate(-90)" xlink:href="#linear-gradient"/><linearGradient id="linear-gradient-68" x1="291.73" y1="-186.37" x2="291.73" y2="-186.74" gradientTransform="translate(230.33 298.04) rotate(-90)" xlink:href="#linear-gradient"/><linearGradient id="linear-gradient-69" x1="279.61" y1="-182.96" x2="279.61" y2="-183.45" gradientTransform="translate(230.33 298.04) rotate(-90)" xlink:href="#linear-gradient"/><linearGradient id="linear-gradient-70" x1="294.36" y1="-182.96" x2="294.36" y2="-183.45" gradientTransform="translate(230.33 298.04) rotate(-90)" xlink:href="#linear-gradient"/><linearGradient id="linear-gradient-71" x1="294.79" y1="-181.59" x2="294.79" y2="-182.05" gradientTransform="translate(230.33 298.04) rotate(-90)" xlink:href="#linear-gradient"/><linearGradient id="linear-gradient-72" x1="281.28" y1="-184.68" x2="281.28" y2="-186.5" gradientTransform="translate(230.33 298.04) rotate(-90)" xlink:href="#linear-gradient"/><linearGradient id="linear-gradient-73" x1="293.68" y1="-184.34" x2="293.68" y2="-184.67" gradientTransform="translate(230.33 298.04) rotate(-90)" xlink:href="#linear-gradient"/><linearGradient id="linear-gradient-74" x1="280.29" y1="-184.34" x2="280.29" y2="-184.67" gradientTransform="translate(230.33 298.04) rotate(-90)" xlink:href="#linear-gradient"/><linearGradient id="linear-gradient-75" x1="286.98" y1="-172.13" x2="286.98" y2="-214.81" gradientTransform="translate(230.33 298.04) rotate(-90)" xlink:href="#linear-gradient"/></defs><path class="cls-1" d="M55.18,24.5a8,8,0,1,1,8,8A8,8,0,0,1,55.18,24.5Z"/><path class="cls-2" d="M12.64,17l.48.19Z"/><path class="cls-3" d="M14,17.71a2.79,2.79,0,0,1,.33.19A2.79,2.79,0,0,0,14,17.71Z"/><path class="cls-4" d="M11.27,16.64l.45.1Z"/><path class="cls-5" d="M11.72,32.26l-.45.1Z"/><path class="cls-6" d="M14.34,31.1l-.33.19Z"/><path class="cls-7" d="M15.61,30l-1.26,1.09A7.25,7.25,0,0,0,15.61,30Z"/><path class="cls-8" d="M13.12,31.78l-.48.19Z"/><path class="cls-9" d="M16.17,19.68a7.84,7.84,0,0,0-1.82-1.77L15.62,19C15.82,19.22,16,19.45,16.17,19.68Z"/><path class="cls-10" d="M16.05,29.47c.12-.15.25-.28.36-.44h0C16.3,29.19,16.17,29.32,16.05,29.47Z"/><path class="cls-11" d="M35,32.36l-.46-.1Z"/><path class="cls-12" d="M30.69,19l1.25-1.08A7.58,7.58,0,0,0,30.69,19Z"/><path class="cls-13" d="M30.24,19.53c-.12.15-.25.28-.36.44h0C30,19.81,30.12,19.68,30.24,19.53Z"/><path class="cls-14" d="M33.65,32l-.48-.19Z"/><path class="cls-15" d="M33.17,17.22l.48-.19Z"/><path class="cls-16" d="M34.57,16.74l.46-.1Z"/><path class="cls-17" d="M30.12,29.32a7.84,7.84,0,0,0,1.82,1.77L30.67,30A7.12,7.12,0,0,1,30.12,29.32Z"/><path class="cls-18" d="M32,17.9a2.17,2.17,0,0,1,.33-.19A2.17,2.17,0,0,0,32,17.9Z"/><path class="cls-19" d="M32.28,31.29A3.54,3.54,0,0,1,32,31.1,3.54,3.54,0,0,0,32.28,31.29Z"/><path class="cls-20" d="M9.81,32.51a7.86,7.86,0,0,0,1.46-.15l.45-.1c.31-.08.62-.18.92-.29l.48-.19a8.45,8.45,0,0,0,.89-.49l.33-.19h0L15.61,30h0c.16-.16.29-.35.44-.53s.25-.28.36-.44h0a9.41,9.41,0,0,1,13.51,0c.06.09.14.16.2.25a7.12,7.12,0,0,0,.55.66l1.27,1.11h0a3.54,3.54,0,0,0,.33.19,8.45,8.45,0,0,0,.89.49l.48.19c.3.11.61.21.92.29l.46.1a7.67,7.67,0,0,0,1.45.15,8,8,0,1,0,0-16,7.67,7.67,0,0,0-1.45.15l-.46.1c-.31.08-.62.18-.92.29l-.48.19a7,7,0,0,0-.89.49,2.17,2.17,0,0,0-.33.19h0L30.69,19h0c-.16.16-.29.35-.44.53s-.25.28-.36.43h0a9.41,9.41,0,0,1-13.51,0l-.2-.24c-.18-.23-.35-.46-.55-.67l-1.27-1.1h0a2.79,2.79,0,0,0-.33-.19,7,7,0,0,0-.89-.49L12.64,17c-.3-.11-.61-.21-.92-.29l-.45-.1a7.86,7.86,0,0,0-1.46-.15,8,8,0,0,0,0,16Z"/><path class="cls-21" d="M39.35,17l.48.19Z"/><path class="cls-22" d="M40.72,17.71a2.17,2.17,0,0,1,.33.19A2.17,2.17,0,0,0,40.72,17.71Z"/><path class="cls-23" d="M38,16.64l.45.1Z"/><path class="cls-24" d="M38.43,32.26l-.45.1Z"/><path class="cls-25" d="M41.05,31.1a3.54,3.54,0,0,1-.33.19A3.54,3.54,0,0,0,41.05,31.1Z"/><path class="cls-26" d="M42.32,30l-1.26,1.09A7.25,7.25,0,0,0,42.32,30Z"/><path class="cls-27" d="M39.83,31.78l-.48.19Z"/><path class="cls-28" d="M42.88,19.68a7.84,7.84,0,0,0-1.82-1.77L42.33,19C42.53,19.22,42.7,19.45,42.88,19.68Z"/><path class="cls-29" d="M42.76,29.47c.12-.15.25-.28.36-.44h0C43,29.19,42.88,29.32,42.76,29.47Z"/><path class="cls-30" d="M61.74,32.36l-.46-.1Z"/><path class="cls-31" d="M57.39,19l1.26-1.08A7.65,7.65,0,0,0,57.39,19Z"/><path class="cls-32" d="M57,19.53c-.12.15-.25.28-.36.44h0C56.7,19.81,56.83,19.68,57,19.53Z"/><path class="cls-33" d="M60.36,32l-.48-.19Z"/><path class="cls-34" d="M59.88,17.22l.48-.19Z"/><path class="cls-35" d="M61.28,16.74l.46-.1Z"/><path class="cls-36" d="M56.83,29.32a7.84,7.84,0,0,0,1.82,1.77L57.38,30A7.12,7.12,0,0,1,56.83,29.32Z"/><path class="cls-37" d="M58.66,17.9a2.17,2.17,0,0,1,.33-.19A2.17,2.17,0,0,0,58.66,17.9Z"/><path class="cls-38" d="M59,31.29a3.54,3.54,0,0,1-.33-.19A3.54,3.54,0,0,0,59,31.29Z"/><path class="cls-39" d="M26.35,30.47l.48.19Z"/><path class="cls-40" d="M27.72,31.14a3.62,3.62,0,0,1,.33.2A3.62,3.62,0,0,0,27.72,31.14Z"/><path class="cls-41" d="M25,30.08l.46.1Z"/><path class="cls-42" d="M25.43,45.7l-.46.1Z"/><path class="cls-43" d="M28.05,44.54a3.54,3.54,0,0,1-.33.19A3.54,3.54,0,0,0,28.05,44.54Z"/><path class="cls-44" d="M29.32,43.44l-1.26,1.09A7.64,7.64,0,0,0,29.32,43.44Z"/><path class="cls-45" d="M26.83,45.22l-.48.19Z"/><path class="cls-46" d="M29.88,33.12a7.84,7.84,0,0,0-1.82-1.77l1.27,1.1A7,7,0,0,1,29.88,33.12Z"/><path class="cls-47" d="M29.76,42.91c.12-.15.25-.28.36-.44h0C30,42.63,29.88,42.76,29.76,42.91Z"/><path class="cls-48" d="M48.74,45.8l-.46-.1Z"/><path class="cls-49" d="M44.39,32.43l1.26-1.08A8.08,8.08,0,0,0,44.39,32.43Z"/><path class="cls-50" d="M44,33a5.07,5.07,0,0,0-.37.44h0C43.7,33.25,43.83,33.12,44,33Z"/><path class="cls-51" d="M47.37,45.41l-.49-.19Z"/><path class="cls-52" d="M46.88,30.66l.49-.19Z"/><path class="cls-53" d="M48.28,30.18l.46-.1Z"/><path class="cls-54" d="M43.83,42.76a8,8,0,0,0,1.82,1.77l-1.27-1.11A7.12,7.12,0,0,1,43.83,42.76Z"/><path class="cls-55" d="M45.66,31.34c.11-.08.22-.13.33-.2C45.88,31.21,45.77,31.26,45.66,31.34Z"/><path class="cls-56" d="M46,44.73l-.33-.19Z"/><path class="cls-57" d="M23.52,46A7.58,7.58,0,0,0,25,45.8l.46-.1a9,9,0,0,0,.92-.29l.48-.19a8.45,8.45,0,0,0,.89-.49,3.54,3.54,0,0,0,.33-.19h0l1.26-1.09h0c.16-.16.29-.35.44-.53s.25-.28.36-.44h0a9.4,9.4,0,0,1,13.5,0c.07.09.15.16.21.25a7.12,7.12,0,0,0,.55.66l1.27,1.11h0l.33.19a9.58,9.58,0,0,0,.89.49l.49.19a8.78,8.78,0,0,0,.91.29l.46.1a7.67,7.67,0,0,0,1.45.15,8,8,0,1,0,0-16,7.67,7.67,0,0,0-1.45.15l-.46.1a8.78,8.78,0,0,0-.91.29l-.49.19a9.5,9.5,0,0,0-.89.48c-.11.07-.22.12-.33.2h0l-1.26,1.08h0c-.15.16-.29.35-.43.53s-.26.28-.37.43h0a9.4,9.4,0,0,1-13.5,0c-.07-.08-.14-.15-.21-.24a7,7,0,0,0-.55-.67l-1.27-1.1h0a3.62,3.62,0,0,0-.33-.2,8.39,8.39,0,0,0-.89-.48l-.48-.19a9,9,0,0,0-.92-.29l-.46-.1a7.58,7.58,0,0,0-1.45-.15,8,8,0,1,0,0,16Z"/><path class="cls-58" d="M26.35,3.59l.48.19Z"/><path class="cls-59" d="M27.72,4.26a3.62,3.62,0,0,1,.33.2A3.62,3.62,0,0,0,27.72,4.26Z"/><path class="cls-60" d="M25,3.2l.46.1Z"/><path class="cls-61" d="M25.43,18.82l-.46.1Z"/><path class="cls-62" d="M28.05,17.66a3.54,3.54,0,0,1-.33.19A3.54,3.54,0,0,0,28.05,17.66Z"/><path class="cls-63" d="M29.32,16.56l-1.26,1.09A7.64,7.64,0,0,0,29.32,16.56Z"/><path class="cls-64" d="M26.83,18.34l-.48.19Z"/><path class="cls-65" d="M29.88,6.24a7.84,7.84,0,0,0-1.82-1.77l1.27,1.1A7,7,0,0,1,29.88,6.24Z"/><path class="cls-66" d="M29.76,16c.12-.15.25-.28.36-.44h0C30,15.75,29.88,15.88,29.76,16Z"/><path class="cls-67" d="M48.74,18.92l-.46-.1Z"/><path class="cls-68" d="M44.39,5.55l1.26-1.08A8.08,8.08,0,0,0,44.39,5.55Z"/><path class="cls-69" d="M44,6.09a5.07,5.07,0,0,0-.37.44h0A5.07,5.07,0,0,1,44,6.09Z"/><path class="cls-70" d="M47.37,18.53l-.49-.19Z"/><path class="cls-71" d="M46.88,3.78l.49-.19Z"/><path class="cls-72" d="M48.28,3.3l.46-.1Z"/><path class="cls-73" d="M43.83,15.88a8,8,0,0,0,1.82,1.77l-1.27-1.11C44.18,16.34,44,16.1,43.83,15.88Z"/><path class="cls-74" d="M45.66,4.46c.11-.08.22-.13.33-.2C45.88,4.33,45.77,4.38,45.66,4.46Z"/><path class="cls-75" d="M46,17.85l-.33-.19Z"/><path class="cls-76" d="M23.52,19.07A7.58,7.58,0,0,0,25,18.92l.46-.1c.32-.09.62-.18.92-.29l.48-.19a8.45,8.45,0,0,0,.89-.49,3.54,3.54,0,0,0,.33-.19h0l1.26-1.09h0c.16-.16.29-.35.44-.53s.25-.28.36-.44h0a9.4,9.4,0,0,1,13.5,0c.07.09.15.16.21.25s.35.46.55.66l1.27,1.11h0l.33.19a9.58,9.58,0,0,0,.89.49l.49.19c.29.11.6.2.91.29l.46.1a7.67,7.67,0,0,0,1.45.15,8,8,0,1,0,0-16,7.67,7.67,0,0,0-1.45.15l-.46.1a8.78,8.78,0,0,0-.91.29l-.49.19a9.5,9.5,0,0,0-.89.48c-.11.07-.22.12-.33.2h0L44.39,5.55h0c-.15.16-.29.35-.43.53a5.07,5.07,0,0,0-.37.44h0a9.41,9.41,0,0,1-13.5,0c-.07-.1-.14-.16-.21-.25a7,7,0,0,0-.55-.67l-1.27-1.1h0a3.62,3.62,0,0,0-.33-.2,8.39,8.39,0,0,0-.89-.48l-.48-.19a9,9,0,0,0-.92-.29L25,3.2a7.58,7.58,0,0,0-1.45-.15,8,8,0,1,0,0,16Z"/></svg>